<svg width="400" height="400" viewBox="0 0 400 400" fill="none" xmlns="http://www.w3.org/2000/svg">
<g clip-path="url(#clip0_139_30)">
<path d="M309.868 48.3055L277.63 39.0469L255.321 50.0044L285.111 110.652L307.419 99.695L319.797 68.5215L386.722 35.6491L376.792 15.4331L309.868 48.3055Z" fill="black"/>
<path d="M22.3083 139.362L9.92979 170.536L39.7192 231.184L71.9572 240.443L94.2655 229.485L101.747 301.091L168.671 268.218L163.683 220.482L193.428 205.871L183.499 185.655L218.875 168.279C239.077 158.356 254.877 141.567 262.802 121.609L233.013 60.9612C212.374 55.0338 189.424 57.2778 169.226 67.1986L22.3083 139.362Z" fill="black"/>
<path d="M89.3682 332.265L119.158 392.913L253.007 327.168L233.148 286.736L200.91 277.477L89.3682 332.265Z" fill="black"/>
</g>
<defs>
<clipPath id="clip0_139_30">
<rect width="400" height="400" fill="white"/>
</clipPath>
</defs>
</svg>
