<svg width="400" height="400" viewBox="0 0 400 400" fill="none" xmlns="http://www.w3.org/2000/svg">
<path d="M340.426 98.0274C338.437 96.8774 336.438 95.8493 334.439 94.8824C336.433 93.9154 338.432 92.8874 340.426 91.7373C362.868 78.7768 375.809 59.1648 369.329 47.9412C362.85 36.7175 339.408 38.1211 316.966 51.0862C314.977 52.2363 313.086 53.4568 311.251 54.7007C311.411 52.4851 311.523 50.2413 311.523 47.9412C311.523 22.0156 301.018 1 288.063 1C275.108 1 264.603 22.0156 264.603 47.9412C264.603 50.2413 264.715 52.4851 264.875 54.7007C263.04 53.4568 261.154 52.2363 259.16 51.0862C236.718 38.1258 213.272 36.7175 206.797 47.9412C200.317 59.1648 213.257 78.7768 235.7 91.7373C237.689 92.8874 239.688 93.9154 241.687 94.8824C239.693 95.8493 237.694 96.8774 235.7 98.0274C213.257 110.988 200.317 130.6 206.797 141.824C210.841 148.832 221.497 150.916 234.395 148.339C224.284 169.054 218.606 190.37 217.696 211.738C217.682 211.902 217.687 212.071 217.682 212.235H194.222C194.198 211.921 194.208 211.597 194.184 211.282C191.721 181.104 173.6 156.976 152.683 138.852C163.465 134.843 170.762 127.168 170.762 118.353C170.762 106.524 157.629 96.7647 140.559 95.1452C147.691 79.5514 145.809 63.2909 135.571 57.3764C125.333 51.4618 110.314 57.9631 100.381 71.9375C90.4477 57.9631 75.4285 51.4618 65.1904 57.3764C54.9523 63.2909 53.0708 79.5514 60.2027 95.1452C43.1331 96.7647 30 106.524 30 118.353C30 130.182 43.1331 139.941 60.2027 141.561C53.0708 157.155 54.9523 173.415 65.1904 179.33C75.4285 185.244 90.4477 178.743 100.381 164.768C110.314 178.743 125.333 185.244 135.571 179.33C140.822 176.297 143.853 170.523 144.627 163.534C157.999 176.86 168.828 193.262 170.691 212.235H100.381L147.301 400H288.063L334.983 212.235H241.171C242.283 188.281 250.151 164.787 264.607 142.011C264.659 167.848 275.136 188.765 288.063 188.765C301.018 188.765 311.523 167.749 311.523 141.824C311.523 139.523 311.411 137.28 311.251 135.064C313.086 136.308 314.972 137.528 316.966 138.678C339.408 151.639 362.854 153.047 369.329 141.824C375.809 130.6 362.868 110.988 340.426 98.0274ZM88.6507 138.678C77.432 132.196 73.5845 117.841 80.0642 106.618C86.5439 95.394 100.892 91.5448 112.111 98.0274C123.33 104.51 127.177 118.865 120.697 130.088C114.218 141.312 99.8694 145.161 88.6507 138.678ZM288.063 118.353C275.108 118.353 264.603 107.843 264.603 94.8824C264.603 81.9219 275.108 71.4118 288.063 71.4118C301.018 71.4118 311.523 81.9219 311.523 94.8824C311.523 107.843 301.018 118.353 288.063 118.353Z" fill="black"/>
</svg>
