<svg width="400" height="400" viewBox="0 0 400 400" fill="none" xmlns="http://www.w3.org/2000/svg">
<g clip-path="url(#clip0_139_20)">
<path d="M116.467 181.537L181.488 231.934L191.238 308.879L229.711 304.004L224.836 265.532L263.309 260.657L258.434 222.184L296.907 217.309L292.032 178.836L330.505 173.961L325.63 135.489L364.102 130.614L359.227 92.1409L397.7 87.266L392.825 48.7933L349.478 15.1954L116.467 181.537Z" fill="black"/>
<path d="M155.713 246.649L77.9946 186.412L10.7989 273.107C1.53599 285.058 3.72288 302.317 15.6738 311.58L102.369 378.775C114.32 388.038 131.579 385.851 140.842 373.9L167.482 339.53L155.713 246.649ZM131.092 296.955L135.967 335.428L119.168 357.101L32.4727 289.906L66.0706 246.558L131.092 296.955Z" fill="black"/>
</g>
<defs>
<clipPath id="clip0_139_20">
<rect width="400" height="400" fill="white"/>
</clipPath>
</defs>
</svg>
