<svg width="400" height="400" viewBox="0 0 400 400" fill="none" xmlns="http://www.w3.org/2000/svg">
<path d="M319 105.2V33.8C319 20.6576 308.356 10 295.231 10H33.7692C20.6439 10 10 20.6576 10 33.8V105.2C10 118.342 20.6439 129 33.7692 129H295.231C308.356 129 319 118.342 319 105.2Z" fill="black"/>
<path d="M378.15 57H342.6V80.7857H366.3V130.964L185.678 176.281C180.402 177.608 176.7 182.365 176.7 187.821V223.5H153V390H224.1V223.5H200.4V197.107L381.022 151.791C386.298 150.464 390 145.706 390 140.25V68.8929C390 62.3232 384.696 57 378.15 57Z" fill="black"/>
</svg>
