<svg width="400" height="400" viewBox="0 0 400 400" fill="none" xmlns="http://www.w3.org/2000/svg">
<path d="M385.747 65.2725L315.778 105.254C313.557 101.08 310.635 97.1807 307.225 93.7702C303.814 90.3598 299.915 87.438 295.741 85.2175L335.723 15.2479L321.438 7L248.875 55.375L224.688 103.75H176.313L152.125 127.938L7 200.5V224.688L31.1875 248.875L200.5 152.125H231.208C233.308 155.743 235.92 159.106 238.905 162.095C241.894 165.085 245.257 167.692 248.875 169.792V200.5L152.125 369.813L176.313 394H200.5L273.063 248.875L297.25 224.688V176.313L345.625 152.125L394 79.5625L385.747 65.2725ZM273.063 152.125C259.706 152.125 248.875 141.294 248.875 127.938C248.875 114.581 259.706 103.75 273.063 103.75C286.419 103.75 297.25 114.581 297.25 127.938C297.25 141.294 286.419 152.125 273.063 152.125Z" fill="black"/>
</svg>
