<svg width="400" height="400" viewBox="0 0 400 400" fill="none" xmlns="http://www.w3.org/2000/svg">
<path d="M223.338 216.696L208.872 202.231L197.766 191.124L183.304 176.663L172.64 165.998C168.647 162.001 162.167 162.001 158.178 165.998L137.724 186.452C135.801 188.367 134.726 190.969 134.726 193.681V208.809L38.2224 276.326C21.8017 287.813 12 306.619 12 326.636C12 360.472 39.5273 388 73.3628 388C93.3793 388 112.185 378.198 123.672 361.777L191.188 265.272H206.315C209.028 265.272 211.63 264.196 213.548 262.278L234.002 241.823C237.999 237.83 237.999 231.354 234.002 227.362L223.338 216.696ZM202.077 244.818H185.861C182.523 244.818 179.394 246.446 177.483 249.183L106.916 350.053C99.2497 361.004 86.7071 367.545 73.3628 367.545C50.8058 367.545 32.4543 349.193 32.4543 326.636C32.4543 313.291 38.9955 300.749 49.9467 293.086L150.815 222.518C153.552 220.603 155.18 217.474 155.18 214.136V197.919L165.407 187.692L212.304 234.59L202.077 244.818Z" fill="black"/>
<path d="M305.967 50.4686L344.274 35.1466L365.339 56.2118L350.021 94.5229H321.252C318.55 94.5229 315.958 95.5949 314.046 97.5066L216.803 194.754L231.216 209.167L325.475 114.903H356.918C361.084 114.903 364.83 112.364 366.379 108.5L386.759 57.5487C388.271 53.762 387.387 49.4373 384.505 46.5555L353.934 15.9849C351.057 13.099 346.736 12.2186 342.945 13.7267L291.994 34.1072C288.126 35.6601 285.587 39.4061 285.587 43.5718V75.0148L191.327 169.278L205.736 183.687L302.979 86.4441C304.895 84.5324 305.967 81.94 305.967 79.2376V50.4686Z" fill="black"/>
<path d="M191.327 169.421L205.593 155.155L244.316 195.916L231.069 209.163L191.327 169.421Z" fill="black"/>
<path d="M230.75 190.884L213.442 171.654L291.808 76.9422L297.577 43.2883L349.5 26.4614L378.827 55.7883L357.673 106.269L316.808 110.596L230.75 190.884Z" fill="black"/>
<path d="M224.019 234.635L171.616 178.385L160.558 174.539L139.885 218.769L35.5578 290.885L21.1348 323.577L35.5578 360.596L68.7309 378.385L105.75 367.327L185.558 263L214.404 252.423L224.019 234.635Z" fill="black" stroke="black"/>
</svg>
