<svg width="400" height="400" viewBox="0 0 400 400" fill="none" xmlns="http://www.w3.org/2000/svg">
<path d="M381.574 57.7826L345.199 22.1559C328.656 5.94805 301.734 5.94805 285.181 22.1559C277.164 30.008 272.75 40.4443 272.75 51.5456C272.75 62.6469 277.164 73.0832 285.181 80.9353L286.223 81.9566L158.6 206.945L103 152.488L57.444 197.107C24.5028 229.371 6 273.125 6 318.746C6 358.097 38.5726 390 78.75 390C125.329 390 170.003 371.878 202.944 339.614L248.5 294.995L192.9 240.539L320.518 115.546L321.556 116.562C329.568 124.414 340.228 128.737 351.562 128.737C362.897 128.737 373.557 124.414 381.569 116.562C389.586 108.71 394 98.2737 394 87.1724C394 76.0711 389.587 65.6348 381.574 57.7826ZM168.65 264.285C163.911 268.926 157.708 271.244 151.5 271.244C145.292 271.244 139.089 268.926 134.35 264.285C124.878 255.012 124.878 239.973 134.35 230.701L158.6 206.945L192.895 240.534L168.65 264.285ZM364.42 99.7652C357.552 106.492 345.573 106.492 338.7 99.7652L302.325 64.1385C298.891 60.7753 297 56.3006 297 51.5456C297 46.7858 298.891 42.3159 302.325 38.9479C305.871 35.4803 310.527 33.7417 315.187 33.7417C319.848 33.7417 324.499 35.4755 328.045 38.9479L364.42 74.5747C367.858 77.9426 369.75 82.4126 369.75 87.1724C369.75 91.9273 367.858 96.4021 364.42 99.7652Z" fill="black"/>
</svg>
