<svg width="400" height="400" viewBox="0 0 400 400" fill="none" xmlns="http://www.w3.org/2000/svg">
<path d="M152.974 216.652L166.911 202.83L155.991 192L90.4613 256.99L90.5437 257.071C71.1596 254.314 50.7613 260.252 35.8512 275.04C10.7163 299.967 10.7163 340.377 35.8512 365.304C60.9862 390.232 101.731 390.232 126.866 365.304C141.776 350.517 147.769 330.287 144.984 311.063L145.066 311.144L192 264.598L152.969 245.246L152.974 216.652ZM118.655 330.083L111.338 337.338L108.661 347.249L98.668 349.904L91.352 357.16L81.3588 354.505L71.3656 357.16L64.0495 349.904L54.0563 347.249L51.3791 337.338L44.0631 330.083L46.7403 320.172L44.0631 310.261L51.3791 303.005L54.0563 293.095L64.0495 290.439L71.3656 283.184L81.3588 285.839L91.352 283.184L98.668 290.439L108.661 293.095L111.338 303.005L118.655 310.261L115.977 320.172L118.655 330.083Z" fill="black"/>
<path d="M212.688 156.135H241.335L260.719 195L287.488 168.167C306.453 173.263 327.356 171.105 345.702 160.482C370.278 146.261 383.964 120.459 384 93.9185L335.483 121.997C324.17 115.471 314.34 106.028 307.343 93.8826C300.346 81.7376 297.104 68.4802 297.124 55.397L345.641 27.3186C322.692 14.0816 293.559 13.0614 268.984 27.2827C238.256 45.0669 224.533 80.9276 233.3 113.723L188 159.129L198.843 170.013L212.688 156.135Z" fill="black"/>
<path d="M361.043 293.32C336.999 269.139 311.274 246.704 284.074 226.184L252.707 202.522L234.648 166.203H216.589L198.536 184.36L81.1706 66.3236V48.1618L45.0586 30L27 48.1618L45.0586 84.4802H63.1171L180.477 202.522L162.419 220.683V238.845L198.536 257.002L222.064 288.549C242.467 315.91 264.775 341.776 288.819 365.957C308.762 386.014 341.1 386.014 361.043 365.957C380.986 345.9 380.986 313.377 361.043 293.32Z" fill="black"/>
</svg>
