<svg width="400" height="400" viewBox="0 0 400 400" fill="none" xmlns="http://www.w3.org/2000/svg">
<path d="M299.617 170.821L266.945 133.676L276.659 85.0335L353.041 64.6921C326.55 31.5266 281.957 15.165 238.246 26.6623C179.525 42.5818 144.203 103.164 160.098 161.977C160.981 165.957 162.305 169.937 164.072 173.917L36.9144 301.272C19.6952 318.518 19.6952 346.819 36.9144 364.065C54.1336 381.312 81.9492 381.312 99.1684 364.065L226.326 236.71C247.518 245.112 271.36 246.881 295.202 240.69C338.913 228.75 369.377 192.49 376 150.48L299.617 170.821ZM68.2622 354.779C55.8997 354.779 46.1863 345.051 46.1863 332.669C46.1863 320.287 55.8997 310.559 68.2622 310.559C80.6247 310.559 90.338 320.287 90.338 332.669C90.338 345.051 80.6247 354.779 68.2622 354.779Z" fill="black"/>
</svg>
